<?xml version="1.0" encoding="utf-8"?>
<!-- Generator: Adobe Illustrator 16.0.4, SVG Export Plug-In . SVG Version: 6.00 Build 0)  -->
<!DOCTYPE svg PUBLIC "-//W3C//DTD SVG 1.1//EN" "http://www.w3.org/Graphics/SVG/1.1/DTD/svg11.dtd">
<svg version="1.1" id="Layer_1" xmlns="http://www.w3.org/2000/svg" xmlns:xlink="http://www.w3.org/1999/xlink" x="0px" y="0px"
	 width="155px" height="155px" viewBox="-10.75 -10.75 155 155" enable-background="new -10.75 -10.75 155 155"
	 xml:space="preserve">
<g>
	<polygon fill="#00AEEF" points="19.952,125.583 -7.408,55.748 39.392,-2.863 113.549,8.36 140.908,78.194 94.11,136.807 	"/>
	<g>
		<path fill="#FFFFFF" d="M106.898,31.929H26.601c-2.518,0-4.566,2.048-4.566,4.566v6.85v53.659c0,2.52,2.048,4.566,4.566,4.566
			h80.297c2.519,0,4.566-2.049,4.566-4.566V43.346v-6.85C111.465,33.978,109.417,31.929,106.898,31.929z M25.079,36.496
			c0-0.839,0.683-1.522,1.522-1.522h80.297c0.84,0,1.521,0.683,1.521,1.522v6.85c0,0.839-0.682,1.522-1.521,1.522H26.601
			c-0.839,0-1.522-0.683-1.522-1.522V36.496z M106.898,98.527H26.601c-0.839,0-1.522-0.685-1.522-1.522V47.646
			c0.477,0.168,0.988,0.266,1.522,0.266h80.297c0.535,0,1.045-0.098,1.521-0.266v49.358
			C108.42,97.843,107.738,98.527,106.898,98.527z"/>
		<path fill="#FFFFFF" d="M78.426,64.472c-0.667-0.667-1.748-0.667-2.414,0c-0.668,0.667-0.668,1.748,0,2.415l8.404,8.404
			c0.143,0.143,0.164,0.312,0.164,0.402s-0.021,0.26-0.164,0.401L76.012,84.5c-0.668,0.668-0.668,1.748,0,2.414
			c0.332,0.334,0.771,0.501,1.207,0.501c0.438,0,0.873-0.167,1.207-0.501l8.404-8.404c1.553-1.553,1.553-4.08,0-5.633L78.426,64.472
			z"/>
		<path fill="#FFFFFF" d="M57.489,66.886c0.667-0.667,0.667-1.748,0-2.415s-1.748-0.667-2.414,0l-8.405,8.405
			c-1.553,1.554-1.553,4.08,0,5.633l8.405,8.404c0.333,0.334,0.77,0.501,1.207,0.501s0.874-0.167,1.207-0.501
			c0.667-0.666,0.667-1.746,0-2.414l-8.405-8.404c-0.143-0.143-0.164-0.312-0.164-0.401s0.021-0.26,0.164-0.402L57.489,66.886z"/>
		<path fill="#FFFFFF" d="M70.871,59.527c-0.915-0.23-1.844,0.32-2.075,1.233l-7.398,29.022c-0.233,0.913,0.319,1.842,1.232,2.075
			c0.142,0.035,0.284,0.054,0.423,0.054c0.762,0,1.457-0.515,1.653-1.286l7.397-29.022C72.336,60.69,71.784,59.761,70.871,59.527z"
			/>
		<circle fill="#FFFFFF" cx="30.112" cy="39.603" r="2.093"/>
		<circle fill="#FFFFFF" cx="37.469" cy="39.603" r="2.093"/>
		<circle fill="#FFFFFF" cx="44.827" cy="39.603" r="2.093"/>
	</g>
</g>
</svg>
